# xmcd CD database file
#
# Track frame offsets:
#	187
#	18107
#	33202
#	51220
#	78532
#	106577
#	118390
#	141685
#	160625
#	183600
#
# Disc length: 2753 seconds
#
# Revision: 3
# Processed by: cddbd v1.5.2PL0 Copyright (c) Steve Scherf et al.
# Submitted via: CDex 1.70beta3
#
DISCID=800abf0a
DTITLE=BLANKEY JET CITY - LOVE FLASH FEVER
DYEAR=1997
DGENRE=J-Rock
TTITLE0=プラネタリウム
TTITLE1=PUDDING
TTITLE2=MICKEY DUCK
TTITLE3=皆殺しのトランペット
TTITLE4=感情
TTITLE5=SPAGHETTI HAIR
TTITLE6=CANDY STORE
TTITLE7=ガソリンの揺れかた
TTITLE8=デニス ホッパー
TTITLE9=海を探す
EXTD=YEAR: 1997
EXTT0=
EXTT1=
EXTT2=
EXTT3=
EXTT4=
EXTT5=
EXTT6=
EXTT7=
EXTT8=
EXTT9=
PLAYORDER=
